<svg width="40" height="40" viewBox="0 0 40 40" fill="none" xmlns="http://www.w3.org/2000/svg">
<path d="M26.5509 12.1149C23.866 13.8281 21.3609 15.8083 19.0739 18.025C16.9224 20.2575 15.0176 22.7145 13.392 25.3546C13.392 25.3546 20.0099 19.1041 26.5509 15.7941C30.6217 13.7756 35.0309 12.5281 39.5558 12.1149C39.5558 12.1149 39.9808 12.2007 39.5558 13.1447C39.3378 13.6287 37.2328 16.0098 35.1808 19.1178C33.2718 22.0098 31.4059 25.6481 31.4059 25.6481C31.4059 25.6481 32.9789 31.748 33.6059 35.131C34.2329 38.514 34.376 39.8987 32.869 38.8307C31.497 37.8557 22.2008 31.8499 20.5138 30.7599C20.3958 30.6839 20.884 30.9831 20.309 30.6281C19.734 30.2731 21.9929 27.7219 24.8559 24.5709C27.0314 22.2617 29.3352 20.0767 31.756 18.026C27.8972 19.8778 24.3472 22.3138 21.2318 25.2487C18.055 28.1418 15.0834 31.2524 12.338 34.5577C10.122 37.2577 8.873 39.371 8.246 39.191C7.619 39.011 7.91582 35.9908 8.36782 32.7208C10.0566 21.0984 15.0101 10.1942 22.652 1.276C22.652 1.276 22.991 0.895692 23.287 0.934692C23.583 0.973692 23.859 0.922895 24.673 3.71789C25.487 6.51289 26.5509 12.1149 26.5509 12.1149Z" fill="white"/>
<path d="M10.7219 16.5869C10.7219 16.5869 9.75795 19.3311 9.19995 21.4731C8.87693 22.6818 8.64001 23.912 8.49097 25.1542C7.29061 24.5127 6.05775 23.9339 4.79712 23.4208C2.83612 22.6338 0.647949 22.0082 0.647949 22.0082C2.1835 20.7244 3.83298 19.5831 5.57593 18.5991C7.21223 17.7416 8.93795 17.0666 10.7219 16.5869Z" fill="white"/>
</svg>
